<mxfile host="app.diagrams.net" agent="Mozilla/5.0 (Windows NT 10.0; Win64; x64) AppleWebKit/537.36 (KHTML, like Gecko) Chrome/135.0.0.0 Safari/537.36 OPR/120.0.0.0" version="28.2.3">
  <diagram name="Page-1" id="JaD3Yy0sD6Ru0_itfxPk">
    <mxGraphModel dx="2647" dy="1104" grid="1" gridSize="10" guides="1" tooltips="1" connect="1" arrows="1" fold="1" page="1" pageScale="1" pageWidth="850" pageHeight="1100" math="0" shadow="0">
      <root>
        <mxCell id="0" />
        <mxCell id="1" parent="0" />
        <mxCell id="WCCUMINx5tFJ4gvI4-Xa-3" style="edgeStyle=orthogonalEdgeStyle;rounded=0;orthogonalLoop=1;jettySize=auto;html=1;" parent="1" source="WCCUMINx5tFJ4gvI4-Xa-1" target="WCCUMINx5tFJ4gvI4-Xa-2" edge="1">
          <mxGeometry relative="1" as="geometry" />
        </mxCell>
        <mxCell id="WCCUMINx5tFJ4gvI4-Xa-1" value="Start" style="rounded=1;whiteSpace=wrap;html=1;" parent="1" vertex="1">
          <mxGeometry x="360" y="200" width="120" height="60" as="geometry" />
        </mxCell>
        <mxCell id="WCCUMINx5tFJ4gvI4-Xa-6" style="edgeStyle=orthogonalEdgeStyle;rounded=0;orthogonalLoop=1;jettySize=auto;html=1;exitX=0.5;exitY=1;exitDx=0;exitDy=0;entryX=0.5;entryY=0;entryDx=0;entryDy=0;" parent="1" source="WCCUMINx5tFJ4gvI4-Xa-2" target="WCCUMINx5tFJ4gvI4-Xa-5" edge="1">
          <mxGeometry relative="1" as="geometry" />
        </mxCell>
        <mxCell id="WCCUMINx5tFJ4gvI4-Xa-2" value="Display greeting Image: &quot;&lt;span style=&quot;background-color: transparent;&quot;&gt;Hej. Welcome to the spare parts inventory!&lt;br&gt;&lt;/span&gt;&lt;span style=&quot;background-color: transparent;&quot;&gt;Which part do you need?&lt;/span&gt;&quot;" style="rounded=0;whiteSpace=wrap;html=1;" parent="1" vertex="1">
          <mxGeometry x="320" y="300" width="200" height="100" as="geometry" />
        </mxCell>
        <mxCell id="WCCUMINx5tFJ4gvI4-Xa-8" style="edgeStyle=orthogonalEdgeStyle;rounded=0;orthogonalLoop=1;jettySize=auto;html=1;exitX=0.5;exitY=1;exitDx=0;exitDy=0;entryX=0.5;entryY=0;entryDx=0;entryDy=0;" parent="1" source="WCCUMINx5tFJ4gvI4-Xa-5" target="WCCUMINx5tFJ4gvI4-Xa-9" edge="1">
          <mxGeometry relative="1" as="geometry">
            <mxPoint x="410" y="590" as="targetPoint" />
          </mxGeometry>
        </mxCell>
        <mxCell id="WCCUMINx5tFJ4gvI4-Xa-5" value="Userinput = user-part" style="rounded=0;whiteSpace=wrap;html=1;" parent="1" vertex="1">
          <mxGeometry x="360" y="440" width="120" height="60" as="geometry" />
        </mxCell>
        <mxCell id="WCCUMINx5tFJ4gvI4-Xa-11" style="edgeStyle=orthogonalEdgeStyle;rounded=0;orthogonalLoop=1;jettySize=auto;html=1;entryX=0.5;entryY=0;entryDx=0;entryDy=0;" parent="1" source="WCCUMINx5tFJ4gvI4-Xa-9" target="WCCUMINx5tFJ4gvI4-Xa-10" edge="1">
          <mxGeometry relative="1" as="geometry" />
        </mxCell>
        <mxCell id="WCCUMINx5tFJ4gvI4-Xa-9" value="Show inventory Is input in inventory list?" style="rounded=0;whiteSpace=wrap;html=1;" parent="1" vertex="1">
          <mxGeometry x="360" y="540" width="120" height="60" as="geometry" />
        </mxCell>
        <mxCell id="WCCUMINx5tFJ4gvI4-Xa-18" value="No" style="edgeStyle=orthogonalEdgeStyle;rounded=0;orthogonalLoop=1;jettySize=auto;html=1;exitX=1;exitY=0.5;exitDx=0;exitDy=0;entryX=0.5;entryY=0;entryDx=0;entryDy=0;" parent="1" source="WCCUMINx5tFJ4gvI4-Xa-10" target="WCCUMINx5tFJ4gvI4-Xa-14" edge="1">
          <mxGeometry relative="1" as="geometry" />
        </mxCell>
        <mxCell id="WCCUMINx5tFJ4gvI4-Xa-10" value="Is input in inventory list?" style="rhombus;whiteSpace=wrap;html=1;" parent="1" vertex="1">
          <mxGeometry x="345" y="630" width="150" height="140" as="geometry" />
        </mxCell>
        <mxCell id="WCCUMINx5tFJ4gvI4-Xa-20" style="edgeStyle=orthogonalEdgeStyle;rounded=0;orthogonalLoop=1;jettySize=auto;html=1;exitX=0.5;exitY=1;exitDx=0;exitDy=0;entryX=1;entryY=0.5;entryDx=0;entryDy=0;" parent="1" source="WCCUMINx5tFJ4gvI4-Xa-12" target="WCCUMINx5tFJ4gvI4-Xa-5" edge="1">
          <mxGeometry relative="1" as="geometry">
            <mxPoint x="620" y="619.9999999999999" as="targetPoint" />
            <Array as="points">
              <mxPoint x="570" y="930" />
              <mxPoint x="660" y="930" />
              <mxPoint x="660" y="620" />
              <mxPoint x="500" y="620" />
              <mxPoint x="500" y="470" />
            </Array>
          </mxGeometry>
        </mxCell>
        <mxCell id="WCCUMINx5tFJ4gvI4-Xa-12" value="Ask user again" style="rounded=0;whiteSpace=wrap;html=1;" parent="1" vertex="1">
          <mxGeometry x="510" y="850" width="120" height="60" as="geometry" />
        </mxCell>
        <mxCell id="WCCUMINx5tFJ4gvI4-Xa-21" style="edgeStyle=orthogonalEdgeStyle;rounded=0;orthogonalLoop=1;jettySize=auto;html=1;exitX=0.5;exitY=1;exitDx=0;exitDy=0;entryX=0.5;entryY=0;entryDx=0;entryDy=0;" parent="1" source="WCCUMINx5tFJ4gvI4-Xa-13" target="WCCUMINx5tFJ4gvI4-Xa-16" edge="1">
          <mxGeometry relative="1" as="geometry" />
        </mxCell>
        <mxCell id="WCCUMINx5tFJ4gvI4-Xa-13" value="Print &quot;&lt;span style=&quot;background-color: transparent;&quot;&gt;I have got {part} here for you ðŸ˜Š. Bye!!&lt;/span&gt;&lt;span style=&quot;background-color: transparent; color: light-dark(rgb(0, 0, 0), rgb(255, 255, 255));&quot;&gt;&amp;nbsp;&quot;&lt;/span&gt;" style="rounded=0;whiteSpace=wrap;html=1;" parent="1" vertex="1">
          <mxGeometry x="225" y="770" width="120" height="60" as="geometry" />
        </mxCell>
        <mxCell id="WCCUMINx5tFJ4gvI4-Xa-19" style="edgeStyle=orthogonalEdgeStyle;rounded=0;orthogonalLoop=1;jettySize=auto;html=1;exitX=0.5;exitY=1;exitDx=0;exitDy=0;entryX=0.5;entryY=0;entryDx=0;entryDy=0;" parent="1" source="WCCUMINx5tFJ4gvI4-Xa-14" target="WCCUMINx5tFJ4gvI4-Xa-12" edge="1">
          <mxGeometry relative="1" as="geometry" />
        </mxCell>
        <mxCell id="WCCUMINx5tFJ4gvI4-Xa-14" value="Print &quot;I am afraid we donâ€™t have any {part} in the inventory ðŸ˜”&quot;" style="rounded=0;whiteSpace=wrap;html=1;" parent="1" vertex="1">
          <mxGeometry x="510" y="750" width="130" height="70" as="geometry" />
        </mxCell>
        <mxCell id="WCCUMINx5tFJ4gvI4-Xa-16" value="Close" style="rounded=1;whiteSpace=wrap;html=1;" parent="1" vertex="1">
          <mxGeometry x="375" y="950" width="120" height="60" as="geometry" />
        </mxCell>
        <mxCell id="WCCUMINx5tFJ4gvI4-Xa-17" value="Yes" style="edgeStyle=orthogonalEdgeStyle;rounded=0;orthogonalLoop=1;jettySize=auto;html=1;exitX=0;exitY=0.5;exitDx=0;exitDy=0;entryX=0.5;entryY=0;entryDx=0;entryDy=0;" parent="1" source="WCCUMINx5tFJ4gvI4-Xa-10" target="WCCUMINx5tFJ4gvI4-Xa-13" edge="1">
          <mxGeometry relative="1" as="geometry" />
        </mxCell>
      </root>
    </mxGraphModel>
  </diagram>
</mxfile>
